<svg xmlns="http://www.w3.org/2000/svg" width="800" height="260"><path d="M351.125 173.416h73.563v29.56h-111.79V56.294h38.227ZM502.918 89.63q17.553 0 30.781 6.78a49.304 49.304 0 0 1 20.669 19.779q7.443 13.004 7.446 31.225 0 18.227-7.446 31.227a49.28 49.28 0 0 1-20.669 19.78q-13.225 6.78-30.78 6.778-17.119 0-30.45-6.778a49.094 49.094 0 0 1-20.779-19.78q-7.449-13.004-7.446-31.227 0-18.219 7.446-31.225a49.117 49.117 0 0 1 20.78-19.78q13.336-6.775 30.448-6.779Zm0 26.893a19.579 19.579 0 0 0-11.112 3.11q-4.668 3.117-7.113 10.002-2.448 6.892-2.443 17.78 0 10.89 2.443 17.669 2.445 6.78 7.113 10a19.057 19.057 0 0 0 11.112 3.222 19.453 19.453 0 0 0 11.334-3.223q4.668-3.218 7.111-10 2.445-6.777 2.445-17.669 0-10.884-2.445-17.779-2.448-6.885-7.11-10.001a19.99 19.99 0 0 0-11.335-3.11Zm128.886-71.785v120.456q0 7.332 2.443 10.446 2.445 3.116 8.224 3.112a28.77 28.77 0 0 0 5.557-.446q2.217-.443 5.333-1.332l-2.445 22.668a36.518 36.518 0 0 1-10.445 4.001 54.017 54.017 0 0 1-12.668 1.556q-17.783 0-25.78-8.224-8.004-8.219-8.003-26.893V44.738Zm161.752 136.457q-7.784 0-7.78-8.668v-40.669q0-13.777-6.112-23.224a37.44 37.44 0 0 0-17.556-14.224q-11.45-4.777-27.671-4.78-24.225 0-37.56 9.557a39.737 39.737 0 0 0-16.446 25.558l32.005 7.557q1.998-9.334 7.222-13.001a21.287 21.287 0 0 1 12.557-3.667q7.332 0 11.667 4.556 4.336 4.557 4.334 12.336v3.177l-38.449 7.935q-15.557 3.112-22.779 10.999-7.224 7.892-7.224 19.892 0 9.999 4.557 16.778a28.42 28.42 0 0 0 13.001 10.335 50.719 50.719 0 0 0 19.78 3.557 57.101 57.101 0 0 0 18.78-3.112 33.742 33.742 0 0 0 14.668-9.556 22.154 22.154 0 0 0 2.765-3.96 20.716 20.716 0 0 0 2.458 5.181 22.682 22.682 0 0 0 10.447 8.446 39.603 39.603 0 0 0 15.335 2.778q9.552 0 16.224-3.11l2.221-21.56a19.208 19.208 0 0 1-6.444.889Zm-46.894-10.889a16.47 16.47 0 0 1-4.223 5.89 17.227 17.227 0 0 1-6.112 3.445 23.342 23.342 0 0 1-7.224 1.11 14.52 14.52 0 0 1-8.445-2.445 8.303 8.303 0 0 1-3.556-7.333q0-5.111 3.223-7.667 3.218-2.553 9.889-3.89l18.002-3.75v6.195a20.998 20.998 0 0 1-1.554 8.445Z" style="fill:#fff"/><circle cx="129.465" cy="129.465" r="129.465" style="fill:#5c4fc4"/><path d="m141.683 203.77-.937-.006c-9.755-.087-25.348-1.016-41.813-10.773-18.426-10.92-23.885-30.846-23.885-50.091V57.323s13.921 1.501 30.846 12.147c16.924 10.646 19.38 30.3 19.38 44.222v50.841c0 5.596-.818 18.63 4.778 28.458a22.296 22.296 0 0 0 9.999 9.54 18.37 18.37 0 0 0 1.66.667c.16.066.066.573-.028.572Z" style="fill:#fff"/><circle cx="171.58" cy="177.876" r="24.897" transform="rotate(-45 171.58 177.876)" style="fill:#fff"/></svg>